<svg xmlns="http://www.w3.org/2000/svg" viewBox="0 0 64 64" id="chicken-legs"><path fill="#f29a43" d="M29,54.88A14.09,14.09,0,0,1,9.12,35C13.77,30.31,29.86,20.61,38,21.08a5.28,5.28,0,0,1,3.55,1.34A5.28,5.28,0,0,1,42.92,26C43.39,34.14,33.69,50.23,29,54.88Z"></path><path fill="#fff" d="M18.91 33.62a1 1 0 01-.85-.47 1 1 0 01.32-1.38 68.5 68.5 0 0112.87-6.4 1 1 0 011.27.61 1 1 0 01-.61 1.28 65.85 65.85 0 00-12.47 6.21A1 1 0 0118.91 33.62zM12 38.79a1 1 0 01-.71-1.71 24.94 24.94 0 012.51-2.14A1 1 0 0115 36.53a24.61 24.61 0 00-2.3 2A1 1 0 0112 38.79z"></path><path fill="#e07f32" d="M42.77,28.63C41.51,37.23,33.23,50.69,29,54.88A14.08,14.08,0,0,1,6.32,39a14.08,14.08,0,0,0,24,10.89C33.76,46.42,40,36.74,42.77,28.63Z"></path><path fill="#e8e8e8" d="M57.8,16.88a4.1,4.1,0,0,1-5.79,0L42.92,26a5.28,5.28,0,0,0-1.34-3.55A5.28,5.28,0,0,0,38,21.08L47.12,12a4.1,4.1,0,1,1,5.8-5.79A4,4,0,0,1,54,10a4,4,0,0,1,3.79,1.09A4.1,4.1,0,0,1,57.8,16.88Z"></path></svg>